#!OML:ASF H:\Terrain\Patient Classification 1\Animal2\Wednesday\Animal2.ASF
:FULLY-SPECIFIED
:DEGREES
1774
root 8.87245 17.6143 0.585708 3.15577 -20.1476 -6.96257
lowerback 3.82281 -1.97156 -0.389473
upperback 1.41279 -2.65779 -1.36396
thorax -0.738901 -1.32831 -1.06208
lowerneck -1.81677 -8.6583 9.66454
upperneck 1.04825 -11.7438 -11.1709
head -0.641404 -5.91622 -4.7623
rclavicle 1.82882e-014 1.90833e-014
rhumerus -44.4473 -5.76906 -74.3793
rradius 115.125
rwrist -33.5299
rhand -42.2143 -3.36298
rfingers 7.12502
rthumb -15.1016 -32.7921
lclavicle 1.82882e-014 1.90833e-014
lhumerus -49.8679 3.17776 60.987
lradius 132.953
lwrist 54.9913
lhand -5.47642 37.2693
lfingers 7.12502
lthumb 20.3356 66.2246
rfemur -11.3036 -6.33226 27.3995
rtibia 48.0966
rfoot -11.8557 9.82663
rtoes -32.1946
lfemur -24.7139 5.2175 -19.3236
ltibia 46.93
lfoot -27.7074 -0.157042
ltoes -40.0564
1775
root 8.77287 17.6624 0.637078 3.02275 -20.2507 -7.17778
lowerback 3.89386 -1.93291 -0.589358
upperback 1.24141 -2.61584 -1.29279
thorax -0.941349 -1.30739 -0.873029
lowerneck -2.13298 -8.63181 9.54873
upperneck 1.9559 -11.6666 -11.4807
head -0.329204 -5.89541 -4.88097
rclavicle -3.11098e-014 6.36111e-015
rhumerus -44.5137 -5.80402 -73.721
rradius 115.309
rwrist -32.9798
rhand -41.5305 -3.07158
rfingers 7.12502
rthumb -14.4428 -32.549
lclavicle -3.11098e-014 6.36111e-015
lhumerus -49.843 3.06161 60.6833
lradius 133.294
lwrist 55.176
lhand -7.4629 36.835
lfingers 7.12502
lthumb 18.4256 65.9824
rfemur -11.166 -6.65589 27.2952
rtibia 48.2325
rfoot -10.6861 10.8892
rtoes -33.8109
lfemur -24.4645 4.72144 -19.4899
ltibia 45.9298
lfoot -26.726 -0.0841713
ltoes -39.2708
1776
root 8.67333 17.7159 0.697296 2.9484 -20.3455 -7.46349
lowerback 3.71778 -1.94114 -0.639301
upperback 1.20852 -2.62624 -1.26791
thorax -0.873445 -1.31266 -0.825004
lowerneck -2.50639 -8.54206 9.61352
upperneck 2.56624 -11.5319 -11.7626
head -0.0973403 -5.84599 -5.01587
rclavicle -6.61953e-014 1.90833e-014
rhumerus -44.3004 -5.9377 -73.4255
rradius 115.54
rwrist -32.1212
rhand -41.5773 -2.4742
rfingers 7.12502
rthumb -14.4879 -31.9484
lclavicle -6.61953e-014 1.90833e-014
lhumerus -49.6148 2.89545 60.3665
lradius 133.615
lwrist 55.4064
lhand -9.82364 36.0578
lfingers 7.12502
lthumb 16.1535 65.4047
rfemur -11.068 -6.85158 27.1771
rtibia 48.5219
rfoot -9.33755 11.8624
rtoes -32.4121
lfemur -24.2148 4.21356 -19.4976
ltibia 45.0265
lfoot -25.6743 -0.110997
ltoes -39.5719
1777
root 8.57559 17.7626 0.755765 2.87162 -20.4555 -7.81139
lowerback 3.41645 -2.00678 -0.582938
upperback 1.3967 -2.70569 -1.31688
thorax -0.518061 -1.35273 -0.919068
lowerneck -3.03809 -8.33604 9.91208
upperneck 2.73508 -11.2943 -11.8538
head 0.0416487 -5.74252 -5.12832
rclavicle -2.56432e-014 4.77083e-015
rhumerus -43.6082 -6.11862 -73.5062
rradius 115.64
rwrist -30.7881
rhand -41.4687 -2.03011
rfingers 7.12502
rthumb -14.3832 -31.5118
lclavicle -2.56432e-014 4.77083e-015
lhumerus -49.1814 2.78239 59.7835
lradius 133.904
lwrist 55.794
lhand -12.1039 34.6737
lfingers 7.12502
lthumb 13.9569 64.1852
rfemur -10.978 -6.92697 27.1347
rtibia 48.9936
rfoot -8.54969 11.5236
rtoes -31.0674
lfemur -23.9603 3.72565 -19.3356
ltibia 44.196
lfoot -24.3519 -1.13805
ltoes -38.8824
1778
root 8.47734 17.7986 0.809974 2.82685 -20.6992 -8.10671
lowerback 3.14324 -2.07333 -0.604732
upperback 1.4853 -2.79055 -1.38258
thorax -0.277916 -1.3953 -0.983936
lowerneck -3.38668 -8.18877 9.97784
upperneck 2.94308 -11.1121 -11.7788
head 0.180117 -5.66074 -5.14522
rclavicle -2.77305e-014 -1.27222e-014
rhumerus -43.0845 -5.90662 -73.5941
rradius 115.932
rwrist -29.8468
rhand -41.1141 -1.68755
rfingers 7.12502
rthumb -14.0416 -31.1932
lclavicle -2.77305e-014 -1.27222e-014
lhumerus -48.9308 2.66799 59.19
lradius 134.169
lwrist 56.1091
lhand -14.2705 33.4795
lfingers 7.12502
lthumb 11.8683 63.1231
rfemur -11.1152 -6.98447 27.133
rtibia 49.6605
rfoot -8.91418 9.08951
rtoes -33.7556
lfemur -23.7075 3.21767 -19.1302
ltibia 43.4258
lfoot -22.7656 -3.26474
ltoes -35.6449
1779
root 8.3757 17.8297 0.867438 2.83073 -21.0241 -8.4101
lowerback 2.97331 -2.11358 -0.694486
upperback 1.36135 -2.84553 -1.36055
thorax -0.305228 -1.42305 -0.913334
lowerneck -3.34283 -8.14928 9.71452
upperneck 3.15871 -11.0294 -11.6122
head 0.269647 -5.61919 -5.06173
rclavicle 1.98785e-016 -1.74931e-014
rhumerus -42.9705 -5.39032 -73.5328
rradius 116.388
rwrist -29.4557
rhand -40.7002 -0.519093
rfingers 7.12502
rthumb -13.6427 -30.052
lclavicle 1.98785e-016 -1.74931e-014
lhumerus -48.9266 2.47681 58.904
lradius 134.507
lwrist 56.1777
lhand -16.5141 33.3805
lfingers 7.12502
lthumb 9.70414 63.1369
rfemur -11.3612 -6.91433 27.0875
rtibia 50.4877
rfoot -9.11315 5.69681
rtoes -33.8106
lfemur -23.4247 2.76694 -18.8653
ltibia 42.7327
lfoot -21.0625 -5.3744
ltoes -32.4915
1780
root 8.27818 17.8338 0.921799 2.85884 -21.2677 -8.83361
lowerback 2.91662 -2.14467 -0.664859
upperback 1.1881 -2.88699 -1.28861
thorax -0.449278 -1.4435 -0.852907
lowerneck -2.96806 -8.07569 9.64054
upperneck 3.04116 -10.9062 -11.5446
head 0.195529 -5.54639 -5.01181
rclavicle 3.15074e-014 3.18055e-015
rhumerus -42.9668 -5.0013 -73.4876
rradius 116.817
rwrist -28.8796
rhand -40.0738 0.843012
rfingers 7.12502
rthumb -13.039 -28.7295
lclavicle 3.15074e-014 3.18055e-015
lhumerus -48.8555 2.03294 58.8178
lradius 134.871
lwrist 56.2675
lhand -18.8194 33.4436
lfingers 7.12502
lthumb 7.47947 63.2914
rfemur -11.5635 -6.88908 27.0631
rtibia 51.3654
rfoot -9.36719 1.91356
rtoes -31.8593
lfemur -23.1912 2.37245 -18.4319
ltibia 42.1498
lfoot -19.0916 -6.96059
ltoes -30.7915
1781
root 8.18827 17.8231 0.972543 2.83831 -21.467 -9.40931
lowerback 2.9195 -2.17451 -0.3758
upperback 1.18278 -2.91879 -1.25251
thorax -0.46921 -1.45886 -0.975805
lowerneck -2.84977 -7.93053 9.91952
upperneck 2.84428 -10.7246 -11.6815
head 0.11504 -5.45086 -5.08953
rclavicle 5.02428e-014 -4.77083e-015
rhumerus -42.6682 -4.88119 -73.597
rradius 117.247
rwrist -28.1998
rhand -39.2592 1.6369
rfingers 7.12502
rthumb -12.2535 -27.9841
lclavicle 5.02428e-014 -4.77083e-015
lhumerus -48.4121 1.53831 58.7105
lradius 135.293
lwrist 56.4553
lhand -21.106 33.2568
lfingers 7.12502
lthumb 5.27201 63.1712
rfemur -11.687 -6.89242 27.1348
rtibia 52.1889
rfoot -9.68206 -1.94952
rtoes -31.1636
lfemur -22.9502 1.83972 -17.7904
ltibia 41.7368
lfoot -17.132 -8.19594
ltoes -30.0745
1782
root 8.09719 17.8248 1.02814 2.71392 -21.7352 -9.87167
lowerback 2.90448 -2.23064 -0.193233
upperback 1.26794 -2.98753 -1.2258
thorax -0.382471 -1.49276 -1.05083
lowerneck -3.01172 -7.79093 10.1019
upperneck 2.75251 -10.5618 -11.8639
head 0.112186 -5.37501 -5.18227
rclavicle 2.7482e-014 7.95139e-015
rhumerus -42.0943 -4.60305 -73.8078
rradius 117.593
rwrist -27.8375
rhand -38.5635 2.56746
rfingers 7.12502
rthumb -11.5828 -27.0924
lclavicle 2.7482e-014 7.95139e-015
lhumerus -47.9412 1.32686 58.7422
lradius 135.781
lwrist 56.3724
lhand -23.1918 33.0526
lfingers 7.12502
lthumb 3.2579 63.0074
rfemur -11.7345 -6.7216 27.0207
rtibia 52.8815
rfoot -10.1489 -4.85686
rtoes -28.0481
lfemur -22.6994 1.02983 -17.1775
ltibia 41.5529
lfoot -14.777 -10.3108
ltoes -20.02
1783
root 8.00252 17.8076 1.08072 2.48237 -22.0844 -9.90519
lowerback 2.89255 -2.29216 -0.493978
upperback 1.22227 -3.07786 -1.23316
thorax -0.408744 -1.53869 -0.887134
lowerneck -2.92967 -7.70054 9.97063
upperneck 2.71867 -10.4298 -11.9316
head 0.106556 -5.30908 -5.18129
rclavicle -3.53837e-014 1.90833e-014
rhumerus -41.8151 -4.0449 -73.9854
rradius 118.087
rwrist -27.7511
rhand -37.7158 3.65422
rfingers 7.12502
rthumb -10.7651 -26.0499
lclavicle -3.53837e-014 1.90833e-014
lhumerus -47.7679 1.30109 58.8971
lradius 136.182
lwrist 56.0484
lhand -24.6384 32.7879
lfingers 7.12502
lthumb 1.86078 62.7595
rfemur -11.8227 -6.46933 26.4217
rtibia 53.5292
rfoot -10.816 -6.90124
rtoes -23.1935
lfemur -22.4727 0.293103 -16.9852
ltibia 41.5461
lfoot -12.649 -11.6007
ltoes -3.17285
